<svg id="Слой_1" data-name="Слой 1" xmlns="http://www.w3.org/2000/svg" xmlns:xlink="http://www.w3.org/1999/xlink" viewBox="0 0 312.779 131.993"><defs><style>.cls-1,.cls-6{fill:#fff;}.cls-1,.cls-11{stroke:#1d1d1b;stroke-miterlimit:10;}.cls-2{fill:#2db3ce;}.cls-3{fill:#3b5666;}.cls-4{fill:#7ea0af;}.cls-5{fill:#cde2dd;}.cls-7{fill:#010101;}.cls-8{font-size:12px;font-family:TimesNewRomanPSMT, Times New Roman;}.cls-12,.cls-8{fill:#1d1d1b;}.cls-9{letter-spacing:0.012em;}.cls-10{letter-spacing:-0.006em;}.cls-11{fill:none;}.cls-13{letter-spacing:-0.037em;}.cls-14{letter-spacing:-0.013em;}.cls-15{letter-spacing:0.025em;}.cls-16{fill:url(#Безымянный_градиент_4);}.cls-17{fill:url(#Безымянный_градиент_2);}.cls-18{fill:url(#Безымянный_градиент_3);}.cls-19{fill:url(#Безымянный_градиент_18);}.cls-20{fill:url(#Безымянный_градиент_18-2);}.cls-21{fill:url(#Безымянный_градиент_18-3);}.cls-22{fill:url(#Безымянный_градиент_8);}.cls-23{fill:url(#Безымянный_градиент_8-2);}.cls-24{fill:url(#Безымянный_градиент_9);}.cls-25{fill:url(#Безымянный_градиент_10);}.cls-26{fill:url(#Безымянный_градиент_11);}.cls-27{fill:url(#Безымянный_градиент_14);}.cls-28{fill:url(#Безымянный_градиент_14-2);}.cls-29{fill:url(#Безымянный_градиент_14-3);}.cls-30{fill:url(#Безымянный_градиент_16);}.cls-31{fill:url(#Безымянный_градиент_16-2);}.cls-32{fill:url(#Безымянный_градиент_17);}.cls-33{fill:url(#Безымянный_градиент_18-4);}.cls-34{fill:url(#Безымянный_градиент_19);}.cls-35{fill:url(#Безымянный_градиент_22);}.cls-36{fill:url(#Безымянный_градиент_22-2);}.cls-37{fill:url(#Безымянный_градиент_22-3);}.cls-38{fill:url(#Безымянный_градиент_23);}</style><linearGradient id="Безымянный_градиент_4" x1="241.356" y1="1617.479" x2="241.356" y2="1608.48" gradientTransform="matrix(1.004, 0, 0, -1.004, 0, 1687.082)" gradientUnits="userSpaceOnUse"><stop offset="0" stop-color="#6ab42d"/><stop offset="1" stop-color="#107a9e"/></linearGradient><linearGradient id="Безымянный_градиент_2" x1="234.95" y1="1617.479" x2="234.95" y2="1608.48" gradientTransform="matrix(1.004, 0, 0, -1.004, 0, 1687.082)" gradientUnits="userSpaceOnUse"><stop offset="0" stop-color="#92c02c"/><stop offset="1" stop-color="#6ab42d"/></linearGradient><linearGradient id="Безымянный_градиент_3" x1="235.315" y1="1616.928" x2="261.567" y2="1535.157" gradientTransform="matrix(1.004, 0, 0, -1.004, 0, 1687.082)" gradientUnits="userSpaceOnUse"><stop offset="0" stop-color="#b8cf42"/><stop offset="1" stop-color="#107a9e"/></linearGradient><linearGradient id="Безымянный_градиент_18" x1="255.57" y1="1604.186" x2="257.625" y2="1602.62" gradientTransform="matrix(1.004, 0, 0, -1.004, 0, 1687.082)" gradientUnits="userSpaceOnUse"><stop offset="0" stop-color="#fcbf05"/><stop offset="1" stop-color="#f38f1c"/></linearGradient><linearGradient id="Безымянный_градиент_18-2" x1="261.304" y1="1604.186" x2="263.359" y2="1602.62" xlink:href="#Безымянный_градиент_18"/><linearGradient id="Безымянный_градиент_18-3" x1="267.038" y1="1604.186" x2="269.093" y2="1602.62" xlink:href="#Безымянный_градиент_18"/><linearGradient id="Безымянный_градиент_8" x1="244.038" y1="1586.654" x2="265.981" y2="1643.272" gradientTransform="matrix(1.004, 0, 0, -1.004, 0, 1687.082)" gradientUnits="userSpaceOnUse"><stop offset="0" stop-color="#107a9e" stop-opacity="0"/><stop offset="0.364" stop-color="#0a6481" stop-opacity="0.365"/><stop offset="0.76" stop-color="#0f4f67" stop-opacity="0.76"/><stop offset="1" stop-color="#09485f"/></linearGradient><linearGradient id="Безымянный_градиент_8-2" x1="245.016" y1="1570.933" x2="245.016" y2="1559.095" xlink:href="#Безымянный_градиент_8"/><linearGradient id="Безымянный_градиент_9" x1="235.073" y1="1609.123" x2="235.073" y2="1600.124" gradientTransform="matrix(1.004, 0, 0, -1.004, 0, 1687.082)" gradientUnits="userSpaceOnUse"><stop offset="0" stop-color="#4489c9"/><stop offset="1" stop-color="#107a9e"/></linearGradient><linearGradient id="Безымянный_градиент_10" x1="228.667" y1="1609.123" x2="228.667" y2="1600.124" gradientTransform="matrix(1.004, 0, 0, -1.004, 0, 1687.082)" gradientUnits="userSpaceOnUse"><stop offset="0" stop-color="#49b2e3"/><stop offset="1" stop-color="#4489c9"/></linearGradient><linearGradient id="Безымянный_градиент_11" x1="213.535" y1="1603.552" x2="251.187" y2="1565.9" gradientTransform="matrix(1.004, 0, 0, -1.004, 0, 1687.082)" gradientUnits="userSpaceOnUse"><stop offset="0" stop-color="#86cfe8"/><stop offset="1" stop-color="#49b2e3"/></linearGradient><linearGradient id="Безымянный_градиент_14" x1="249.286" y1="1595.83" x2="251.341" y2="1594.264" gradientTransform="matrix(1.004, 0, 0, -1.004, 0, 1687.082)" gradientUnits="userSpaceOnUse"><stop offset="0" stop-color="#edf5fd"/><stop offset="1" stop-color="#d6e8f8"/></linearGradient><linearGradient id="Безымянный_градиент_14-2" x1="255.021" y1="1595.83" x2="257.075" y2="1594.264" xlink:href="#Безымянный_градиент_14"/><linearGradient id="Безымянный_градиент_14-3" x1="260.755" y1="1595.83" x2="262.81" y2="1594.264" xlink:href="#Безымянный_градиент_14"/><linearGradient id="Безымянный_градиент_16" x1="238.039" y1="1554.577" x2="239.268" y2="1602.054" gradientTransform="matrix(1.004, 0, 0, -1.004, 0, 1687.082)" gradientUnits="userSpaceOnUse"><stop offset="0" stop-color="#b8daf5" stop-opacity="0"/><stop offset="0.173" stop-color="#90c5e9" stop-opacity="0.173"/><stop offset="0.454" stop-color="#57a5c9" stop-opacity="0.454"/><stop offset="0.696" stop-color="#318eb2" stop-opacity="0.696"/><stop offset="0.885" stop-color="#177ea3" stop-opacity="0.885"/><stop offset="1" stop-color="#107a9e"/></linearGradient><linearGradient id="Безымянный_градиент_16-2" x1="238.732" y1="1562.577" x2="238.732" y2="1550.739" xlink:href="#Безымянный_градиент_16"/><linearGradient id="Безымянный_градиент_17" x1="228.789" y1="1600.767" x2="228.789" y2="1591.768" gradientTransform="matrix(1.004, 0, 0, -1.004, 0, 1687.082)" gradientUnits="userSpaceOnUse"><stop offset="0" stop-color="#f38f1c"/><stop offset="1" stop-color="#e63a51"/></linearGradient><linearGradient id="Безымянный_градиент_18-4" x1="222.383" y1="1600.767" x2="222.383" y2="1591.768" xlink:href="#Безымянный_градиент_18"/><linearGradient id="Безымянный_градиент_19" x1="207.252" y1="1595.196" x2="244.904" y2="1557.544" gradientTransform="matrix(1.004, 0, 0, -1.004, 0, 1687.082)" gradientUnits="userSpaceOnUse"><stop offset="0" stop-color="#ffda2e"/><stop offset="1" stop-color="#fcbf05"/></linearGradient><linearGradient id="Безымянный_градиент_22" x1="243.003" y1="1587.473" x2="245.057" y2="1585.908" gradientTransform="matrix(1.004, 0, 0, -1.004, 0, 1687.082)" gradientUnits="userSpaceOnUse"><stop offset="0" stop-color="#ec647d"/><stop offset="1" stop-color="#e63a51"/></linearGradient><linearGradient id="Безымянный_градиент_22-2" x1="248.737" y1="1587.473" x2="250.792" y2="1585.908" xlink:href="#Безымянный_градиент_22"/><linearGradient id="Безымянный_градиент_22-3" x1="254.471" y1="1587.473" x2="256.526" y2="1585.908" xlink:href="#Безымянный_градиент_22"/><linearGradient id="Безымянный_градиент_23" x1="232.448" y1="1554.221" x2="232.448" y2="1542.383" gradientTransform="matrix(1.004, 0, 0, -1.004, 0, 1687.082)" gradientUnits="userSpaceOnUse"><stop offset="0" stop-color="#f38f1c" stop-opacity="0"/><stop offset="1" stop-color="#f38f1c"/></linearGradient></defs><circle class="cls-1" cx="257.294" cy="55.484" r="54.984"/><path class="cls-2" d="M414.329,70.506H464.8a2.819,2.819,0,0,1,2.819,2.819v36.453h-56.1V73.325a2.819,2.819,0,0,1,2.819-2.819Z" transform="translate(-181.877 -42.063)"/><path class="cls-3" d="M478.982,126.609H400.149a2.657,2.657,0,0,1-2.665-2.648V119.6l14.026-12.623h56.1L481.64,119.6v4.348a2.656,2.656,0,0,1-2.648,2.665Z" transform="translate(-181.877 -42.063)"/><path class="cls-4" d="M467.614,106.973h-56.1L397.484,119.6H481.64Z" transform="translate(-181.877 -42.063)"/><path class="cls-5" d="M429.393,119.6l3.156-4.207h14.026l3.156,4.207Z" transform="translate(-181.877 -42.063)"/><path class="cls-5" d="M440.123,86.722l-1.187-2.05.421-3.909-3.177-1.842-3.175,2.324h-2.372l-3.174-2.324-3.185,1.838.42,3.909-1.186,2.054-3.582,1.583v3.674l3.59,1.582,1.185,2.055-.42,3.909,3.176,1.838,3.176-2.324h2.372l3.175,2.324,3.181-1.838-.42-3.909,1.186-2.055,3.591-1.582V88.305Zm-8.3,6.954a3.535,3.535,0,1,1,3.534-3.534A3.534,3.534,0,0,1,431.82,93.676Z" transform="translate(-181.877 -42.063)"/><path class="cls-5" d="M463.406,85.934v-2.8h-2.945a6.976,6.976,0,0,0-1.027-2.459l2.33-2.33-1.984-1.983-2.329,2.33a6.969,6.969,0,0,0-2.461-1.028V74.713h-2.805v2.946a6.94,6.94,0,0,0-2.459,1.027l-2.16-2.16-1.983,1.983,2.16,2.16a6.957,6.957,0,0,0-1.028,2.46H443.77v2.8h2.945a6.983,6.983,0,0,0,.966,2.348l-2.269,2.271,1.983,1.983,2.228-2.229a6.95,6.95,0,0,0,2.562,1.1V94.35h2.805V91.4a6.946,6.946,0,0,0,2.348-.966l2.271,2.269,1.983-1.983L459.364,88.5a6.988,6.988,0,0,0,1.1-2.563Zm-9.818,2.805a4.208,4.208,0,1,1,4.208-4.207A4.208,4.208,0,0,1,453.588,88.739Z" transform="translate(-181.877 -42.063)"/><path class="cls-5" d="M452.185,83.129h2.805v2.8h-2.805Z" transform="translate(-181.877 -42.063)"/><path class="cls-6" d="M467.614,106.973H462L476.029,119.6v4.348a2.655,2.655,0,0,1-2.648,2.665h5.594a2.657,2.657,0,0,0,2.665-2.648V119.6Z" transform="translate(-181.877 -42.063)"/><path class="cls-3" d="M403.094,123.951V119.6l14.026-12.623h-5.61L397.484,119.6v4.348a2.655,2.655,0,0,0,2.648,2.665h5.627a2.657,2.657,0,0,1-2.665-2.648Z" transform="translate(-181.877 -42.063)"/><path class="cls-7" d="M482.578,118.554l-13.562-12.2V73.325A4.227,4.227,0,0,0,464.8,69.1H414.329a4.227,4.227,0,0,0-4.222,4.222v33.024l-13.561,12.2a1.408,1.408,0,0,0-.465,1.045v4.348a4.068,4.068,0,0,0,4.068,4.068h78.84a4.067,4.067,0,0,0,4.067-4.068h0V119.6a1.4,1.4,0,0,0-.478-1.042ZM412.913,73.325a1.418,1.418,0,0,1,1.416-1.417H464.8a1.418,1.418,0,0,1,1.416,1.417V105.57h-53.3Zm67.324,50.633a1.262,1.262,0,0,1-1.262,1.263H400.149a1.262,1.262,0,0,1-1.255-1.263v-3.73l13.155-11.852h55.026l13.162,11.845Z" transform="translate(-181.877 -42.063)"/><path class="cls-7" d="M447.7,114.547a1.4,1.4,0,0,0-1.122-.561H432.549a1.4,1.4,0,0,0-1.122.561L427.64,119.6H405.9V122.4h67.324V119.6h-21.74Zm-14.447,2.244h12.624l2.1,2.805H431.146Z" transform="translate(-181.877 -42.063)"/><path class="cls-7" d="M444.277,87.021l-3.169-1.4-.728-1.263.377-3.453a1.4,1.4,0,0,0-.694-1.366L436.882,77.7a1.406,1.406,0,0,0-1.528.09l-2.805,2.054h-1.456l-2.805-2.052a1.4,1.4,0,0,0-1.53-.083l-3.186,1.836a1.4,1.4,0,0,0-.7,1.366l.376,3.453-.728,1.263-3.17,1.4a1.4,1.4,0,0,0-.841,1.284v3.674a1.4,1.4,0,0,0,.841,1.284l3.17,1.4.728,1.263-.376,3.453a1.4,1.4,0,0,0,.7,1.366l3.18,1.837a1.4,1.4,0,0,0,1.53-.082l2.805-2.054h1.462l2.805,2.052a1.4,1.4,0,0,0,1.529.083l3.18-1.837a1.4,1.4,0,0,0,.694-1.367l-.376-3.453.728-1.262,3.17-1.4a1.4,1.4,0,0,0,.841-1.283V88.3a1.4,1.4,0,0,0-.843-1.283Zm-1.963,4.044-2.752,1.213a1.4,1.4,0,0,0-.648.582l-1.194,2.051a1.4,1.4,0,0,0-.178.853l.326,3-1.6.923L433.831,97.9a1.4,1.4,0,0,0-.826-.271h-2.371a1.412,1.412,0,0,0-.829.271l-2.437,1.784-1.6-.923.326-3a1.4,1.4,0,0,0-.18-.853l-1.185-2.055a1.4,1.4,0,0,0-.65-.582l-2.753-1.21V89.219l2.755-1.213a1.42,1.42,0,0,0,.649-.584l1.184-2.053a1.4,1.4,0,0,0,.18-.853l-.326-3,1.6-.923,2.436,1.783a1.408,1.408,0,0,0,.828.27h2.372a1.411,1.411,0,0,0,.829-.27l2.436-1.784,1.6.923-.327,3a1.392,1.392,0,0,0,.178.852l1.187,2.055a1.4,1.4,0,0,0,.649.582l2.754,1.214Z" transform="translate(-181.877 -42.063)"/><path class="cls-7" d="M431.818,85.2a4.939,4.939,0,1,0,4.939,4.939A4.938,4.938,0,0,0,431.818,85.2Zm0,7.072a2.133,2.133,0,1,1,2.133-2.133h0A2.135,2.135,0,0,1,431.818,92.275Z" transform="translate(-181.877 -42.063)"/><path class="cls-7" d="M459.432,80.67l2.33-2.33-1.983-1.983-2.33,2.33a6.952,6.952,0,0,0-2.459-1.028V74.713h-2.805v2.946a6.94,6.94,0,0,0-2.459,1.027l-2.16-2.16-1.983,1.983,2.16,2.16a6.957,6.957,0,0,0-1.028,2.46H443.77v2.8h2.945a6.983,6.983,0,0,0,.966,2.348l-2.269,2.271,1.983,1.983,2.228-2.229a6.95,6.95,0,0,0,2.562,1.1V94.35h2.805V91.4a6.946,6.946,0,0,0,2.348-.966l2.271,2.269,1.983-1.983L459.364,88.5a6.988,6.988,0,0,0,1.1-2.563h2.945v-2.8h-2.945A6.98,6.98,0,0,0,459.432,80.67Zm-5.844,8.069a4.208,4.208,0,1,1,4.208-4.207A4.208,4.208,0,0,1,453.588,88.739Z" transform="translate(-181.877 -42.063)"/><path class="cls-7" d="M452.185,83.129h2.805v2.8h-2.805Z" transform="translate(-181.877 -42.063)"/><circle class="cls-1" cx="55.484" cy="56.495" r="54.984"/><text class="cls-8" transform="translate(28.852 125.938)">Веб<tspan class="cls-9" x="19.436" y="0">с</tspan><tspan x="24.908" y="0">ер</tspan><tspan class="cls-10" x="36.234" y="0">в</tspan><tspan x="41.83" y="0">ер</tspan></text><text class="cls-8" transform="translate(239.734 128.313)">Клиент</text><line class="cls-11" x1="110.27" y1="34.169" x2="206.596" y2="34.169"/><path class="cls-12" d="M287.621,76.231a22.69,22.69,0,0,1,6.411,3.567l-1.29-3.567,1.29-3.566A22.638,22.638,0,0,1,287.621,76.231Z" transform="translate(-181.877 -42.063)"/><line class="cls-11" x1="104.301" y1="81.815" x2="204.488" y2="81.815"/><path class="cls-12" d="M390.892,123.878a22.635,22.635,0,0,0-6.41,3.567l1.29-3.567-1.29-3.566A22.657,22.657,0,0,0,390.892,123.878Z" transform="translate(-181.877 -42.063)"/><text class="cls-8" transform="translate(122.084 27.564)">HTT<tspan class="cls-13" x="23.326" y="0">P</tspan><tspan x="29.555" y="0" xml:space="preserve"> - з</tspan><tspan class="cls-14" x="44.291" y="0">а</tspan><tspan x="49.459" y="0">пр</tspan><tspan class="cls-15" x="61.881" y="0">о</tspan><tspan x="68.18" y="0">с</tspan></text><text class="cls-8" transform="translate(122.996 74.292)">HTT<tspan class="cls-13" x="23.326" y="0">P</tspan><tspan x="29.555" y="0" xml:space="preserve"> - </tspan><tspan class="cls-14" x="39.551" y="0">о</tspan><tspan x="45.393" y="0">т</tspan><tspan class="cls-10" x="50.637" y="0">в</tspan><tspan x="56.232" y="0">ет</tspan></text><path class="cls-16" d="M254.817,72.288H229.789V65.16a4.277,4.277,0,0,1,4.277-4.277H250.54a4.277,4.277,0,0,1,4.277,4.277Z" transform="translate(-181.877 -42.063)"/><path class="cls-17" d="M248.386,72.288H223.358V65.16a4.277,4.277,0,0,1,4.277-4.277h16.474a4.277,4.277,0,0,1,4.277,4.277Z" transform="translate(-181.877 -42.063)"/><path class="cls-18" d="M241.574,69V65.16a4.276,4.276,0,0,0-4.276-4.277H220.824a4.277,4.277,0,0,0-4.277,4.277v46.18a6.093,6.093,0,0,0,6.093,6.093h46.673a6.093,6.093,0,0,0,6.093-6.093V76.955a6.093,6.093,0,0,0-6.093-6.093H243.436A1.862,1.862,0,0,1,241.574,69Z" transform="translate(-181.877 -42.063)"/><path class="cls-19" d="M257.808,79.244H256.34a1.523,1.523,0,0,1-1.523-1.523V76.253a1.523,1.523,0,0,1,1.523-1.523h1.468a1.524,1.524,0,0,1,1.524,1.523v1.468A1.524,1.524,0,0,1,257.808,79.244Z" transform="translate(-181.877 -42.063)"/><path class="cls-20" d="M263.565,79.244H262.1a1.524,1.524,0,0,1-1.524-1.523V76.253A1.524,1.524,0,0,1,262.1,74.73h1.468a1.523,1.523,0,0,1,1.523,1.523v1.468A1.523,1.523,0,0,1,263.565,79.244Z" transform="translate(-181.877 -42.063)"/><path class="cls-21" d="M269.321,79.244h-1.467a1.523,1.523,0,0,1-1.524-1.523V76.253a1.523,1.523,0,0,1,1.524-1.523h1.467a1.523,1.523,0,0,1,1.524,1.523v1.468A1.523,1.523,0,0,1,269.321,79.244Z" transform="translate(-181.877 -42.063)"/><path class="cls-22" d="M269.313,117.433a6.093,6.093,0,0,0,6.093-6.093V89.15l-7.815-7.815a6.08,6.08,0,0,0-4.586-2.084h-7.146l-8.3-8.389H216.547v40.413a6.157,6.157,0,0,0,6.157,6.157h46.609Z" transform="translate(-181.877 -42.063)"/><path class="cls-23" d="M216.547,104.6v6.738a6.093,6.093,0,0,0,6.093,6.093h46.673a6.093,6.093,0,0,0,6.093-6.093V104.6Z" transform="translate(-181.877 -42.063)"/><path class="cls-24" d="M248.508,80.677H223.481V73.549a4.277,4.277,0,0,1,4.277-4.277h16.474a4.276,4.276,0,0,1,4.276,4.277v7.128Z" transform="translate(-181.877 -42.063)"/><path class="cls-25" d="M242.077,80.677H217.05V73.549a4.277,4.277,0,0,1,4.277-4.277H237.8a4.277,4.277,0,0,1,4.277,4.277v7.128Z" transform="translate(-181.877 -42.063)"/><path class="cls-26" d="M235.266,77.39V73.549a4.277,4.277,0,0,0-4.277-4.277H214.516a4.277,4.277,0,0,0-4.277,4.277v46.18a6.093,6.093,0,0,0,6.093,6.093h46.673a6.093,6.093,0,0,0,6.093-6.093V85.344a6.092,6.092,0,0,0-6.093-6.092H237.127a1.862,1.862,0,0,1-1.861-1.862Z" transform="translate(-181.877 -42.063)"/><path class="cls-27" d="M251.5,87.634h-1.467a1.524,1.524,0,0,1-1.524-1.524V84.642a1.523,1.523,0,0,1,1.524-1.523H251.5a1.523,1.523,0,0,1,1.524,1.523V86.11A1.524,1.524,0,0,1,251.5,87.634Z" transform="translate(-181.877 -42.063)"/><path class="cls-28" d="M257.256,87.634h-1.467a1.524,1.524,0,0,1-1.524-1.524V84.642a1.523,1.523,0,0,1,1.524-1.523h1.467a1.523,1.523,0,0,1,1.524,1.523V86.11A1.524,1.524,0,0,1,257.256,87.634Z" transform="translate(-181.877 -42.063)"/><path class="cls-29" d="M263.013,87.634h-1.468a1.524,1.524,0,0,1-1.523-1.524V84.642a1.523,1.523,0,0,1,1.523-1.523h1.468a1.524,1.524,0,0,1,1.524,1.523V86.11A1.524,1.524,0,0,1,263.013,87.634Z" transform="translate(-181.877 -42.063)"/><path class="cls-30" d="M263.005,125.822a6.093,6.093,0,0,0,6.093-6.093V97.54l-7.816-7.816A6.077,6.077,0,0,0,256.7,87.64h-7.146l-8.3-8.388H210.239v40.412a6.157,6.157,0,0,0,6.157,6.158Z" transform="translate(-181.877 -42.063)"/><path class="cls-31" d="M210.239,112.991v6.738a6.093,6.093,0,0,0,6.093,6.093h46.673a6.093,6.093,0,0,0,6.093-6.093v-6.738Z" transform="translate(-181.877 -42.063)"/><path class="cls-32" d="M242.2,89.066H217.173V81.938a4.276,4.276,0,0,1,4.276-4.277h16.474a4.277,4.277,0,0,1,4.277,4.277v7.128Z" transform="translate(-181.877 -42.063)"/><path class="cls-33" d="M235.769,89.066H210.742V81.938a4.277,4.277,0,0,1,4.277-4.277h16.473a4.277,4.277,0,0,1,4.277,4.277v7.128Z" transform="translate(-181.877 -42.063)"/><path class="cls-34" d="M228.958,85.779V81.938a4.277,4.277,0,0,0-4.277-4.277H208.207a4.277,4.277,0,0,0-4.277,4.277v46.18a6.093,6.093,0,0,0,6.093,6.093H256.7a6.093,6.093,0,0,0,6.093-6.093V93.733A6.093,6.093,0,0,0,256.7,87.64H230.819a1.861,1.861,0,0,1-1.861-1.861Z" transform="translate(-181.877 -42.063)"/><path class="cls-35" d="M245.191,96.023h-1.467A1.524,1.524,0,0,1,242.2,94.5V93.031a1.523,1.523,0,0,1,1.524-1.523h1.467a1.523,1.523,0,0,1,1.524,1.523V94.5A1.524,1.524,0,0,1,245.191,96.023Z" transform="translate(-181.877 -42.063)"/><path class="cls-36" d="M250.948,96.023H249.48a1.524,1.524,0,0,1-1.523-1.524V93.031a1.523,1.523,0,0,1,1.523-1.523h1.468a1.524,1.524,0,0,1,1.524,1.523V94.5A1.525,1.525,0,0,1,250.948,96.023Z" transform="translate(-181.877 -42.063)"/><path class="cls-37" d="M256.705,96.023h-1.468a1.525,1.525,0,0,1-1.524-1.524V93.031a1.524,1.524,0,0,1,1.524-1.523h1.468a1.523,1.523,0,0,1,1.523,1.523V94.5A1.524,1.524,0,0,1,256.705,96.023Z" transform="translate(-181.877 -42.063)"/><path class="cls-38" d="M203.93,121.38v6.738a6.093,6.093,0,0,0,6.093,6.093H256.7a6.093,6.093,0,0,0,6.093-6.093V121.38Z" transform="translate(-181.877 -42.063)"/></svg>